<?xml version="1.0" encoding="utf-8"?>
<!-- Generator: Adobe Illustrator 18.1.0, SVG Export Plug-In . SVG Version: 6.00 Build 0)  -->
<svg version="1.1" xmlns="http://www.w3.org/2000/svg" xmlns:xlink="http://www.w3.org/1999/xlink" x="0px" y="0px"
	 viewBox="0 0 70 90" enable-background="new 0 0 70 90" xml:space="preserve">
<g id="Capa_1">
	<g>
		<path fill="#097594" d="M35.6,6.9c18.8,0,31.4,12.6,31.4,31.4c0,6-2.6,12.3-6.3,18.1c-0.2-0.2-0.4-0.3-0.6-0.5l-13.3-9.2
			c2.1-2.5,3.3-5.7,3.3-9.2c0-8-6.5-14.5-14.5-14.5s-14.5,6.5-14.5,14.5S27.5,52,35.6,52c3.1,0,6-1,8.3-2.6l11.2,12.2
			c0.4,0.4,0.8,0.7,1.2,0.9c-9.1,11.7-20.8,20.6-20.8,20.6S4.2,59.1,4.2,38.3C4.2,19.5,16.8,6.9,35.6,6.9z"/>
		<path fill="#0098CD" d="M33.8,7.8c18.4,0,30.7,12.3,30.7,30.7c0,5.9-2.5,12-6.2,17.8c-0.2-0.2-0.4-0.3-0.5-0.5l-13-9
			c2-2.5,3.2-5.6,3.2-9c0-7.8-6.4-14.2-14.2-14.2S19.6,30,19.6,37.8S26,52,33.8,52c3,0,5.8-1,8.1-2.6l11,12c0.3,0.4,0.7,0.7,1.2,0.9
			c-8.9,11.5-20.4,20.2-20.4,20.2S3.1,59,3.1,38.6C3.1,20.1,15.4,7.8,33.8,7.8z"/>
	</g>
</g>
<g id="Capa_3">
</g>
<g id="Paleta_de_colores">
</g>
</svg>
