<?xml version="1.0" encoding="UTF-8" standalone="no"?>
<!-- Generator: Adobe Illustrator 16.0.0, SVG Export Plug-In . SVG Version: 6.00 Build 0)  -->

<svg
   xmlns:dc="http://purl.org/dc/elements/1.1/"
   xmlns:cc="http://creativecommons.org/ns#"
   xmlns:rdf="http://www.w3.org/1999/02/22-rdf-syntax-ns#"
   xmlns:svg="http://www.w3.org/2000/svg"
   xmlns="http://www.w3.org/2000/svg"
   xmlns:sodipodi="http://sodipodi.sourceforge.net/DTD/sodipodi-0.dtd"
   xmlns:inkscape="http://www.inkscape.org/namespaces/inkscape"
   version="1.1"
   id="Capa_1"
   x="0px"
   y="0px"
   width="160"
   height="420"
   viewBox="0 0 159.99999 419.99999"
   xml:space="preserve"
   inkscape:version="0.91 r"
   sodipodi:docname="map52.svg"><metadata
     id="metadata41"><rdf:RDF><cc:Work
         rdf:about=""><dc:format>image/svg+xml</dc:format><dc:type
           rdf:resource="http://purl.org/dc/dcmitype/StillImage" /><dc:title /></cc:Work></rdf:RDF></metadata><defs
     id="defs39" /><sodipodi:namedview
     pagecolor="#ffffff"
     bordercolor="#666666"
     borderopacity="1"
     objecttolerance="10"
     gridtolerance="10"
     guidetolerance="10"
     inkscape:pageopacity="0"
     inkscape:pageshadow="2"
     inkscape:window-width="1366"
     inkscape:window-height="707"
     id="namedview37"
     showgrid="false"
     inkscape:zoom="0.48638533"
     inkscape:cx="-773.04963"
     inkscape:cy="242.606"
     inkscape:window-x="-5"
     inkscape:window-y="-5"
     inkscape:window-maximized="1"
     inkscape:current-layer="g3" /><g
     id="g3"
     transform="translate(0,-65.210789)"><path
       d="m 125.49149,123.58229 c 0,25.114 -20.377,45.488 -45.489999,45.488 -25.113998,0 -45.489998,-20.374 -45.489998,-45.488 0,-25.113002 20.376,-45.490003 45.489998,-45.490003 25.112999,0 45.489999,20.376001 45.489999,45.490003 z m -15.164,75.814 -60.649997,0 c -16.765,0 -30.327,13.562 -30.327,30.324 l 0,121.302 30.327,0 0,121.307 60.649997,0 0,-121.307 30.322,0 0,-121.302 c 0,-16.761 -13.562,-30.324 -30.322,-30.324 z"
       id="path5"
       inkscape:connector-curvature="0"
       sodipodi:nodetypes="ssssssssccccccss"
       style="fill:#635a9a;fill-opacity:1" /></g><g
     id="g7"
     transform="translate(0,-65.210789)" /><g
     id="g9"
     transform="translate(0,-65.210789)" /><g
     id="g11"
     transform="translate(0,-65.210789)" /><g
     id="g13"
     transform="translate(0,-65.210789)" /><g
     id="g15"
     transform="translate(0,-65.210789)" /><g
     id="g17"
     transform="translate(0,-65.210789)" /><g
     id="g19"
     transform="translate(0,-65.210789)" /><g
     id="g21"
     transform="translate(0,-65.210789)" /><g
     id="g23"
     transform="translate(0,-65.210789)" /><g
     id="g25"
     transform="translate(0,-65.210789)" /><g
     id="g27"
     transform="translate(0,-65.210789)" /><g
     id="g29"
     transform="translate(0,-65.210789)" /><g
     id="g31"
     transform="translate(0,-65.210789)" /><g
     id="g33"
     transform="translate(0,-65.210789)" /><g
     id="g35"
     transform="translate(0,-65.210789)" /></svg>